<svg width="148" height="63" viewBox="0 0 148 63" xmlns="http://www.w3.org/2000/svg" xmlns:xlink="http://www.w3.org/1999/xlink"><defs><filter x="-9.2%" y="-22.8%" width="118.5%" height="154.6%" filterUnits="objectBoundingBox" id="a"><feMorphology radius="5" operator="dilate" in="SourceAlpha" result="shadowSpreadOuter1"/><feOffset dy="2" in="shadowSpreadOuter1" result="shadowOffsetOuter1"/><feMorphology radius="1" in="SourceAlpha" result="shadowInner"/><feOffset dy="2" in="shadowInner" result="shadowInner"/><feComposite in="shadowOffsetOuter1" in2="shadowInner" operator="out" result="shadowOffsetOuter1"/><feGaussianBlur stdDeviation="2" in="shadowOffsetOuter1" result="shadowBlurOuter1"/><feColorMatrix values="0 0 0 0 0.419607843 0 0 0 0 0.360784314 0 0 0 0 0.262745098 0 0 0 0.5 0" in="shadowBlurOuter1"/></filter><filter x="-5.4%" y="-11.4%" width="110.8%" height="131.9%" filterUnits="objectBoundingBox" id="c"><feOffset dy="2" in="SourceAlpha" result="shadowOffsetOuter1"/><feGaussianBlur stdDeviation="2" in="shadowOffsetOuter1" result="shadowBlurOuter1"/><feComposite in="shadowBlurOuter1" in2="SourceAlpha" operator="out" result="shadowBlurOuter1"/><feColorMatrix values="0 0 0 0 0.419607843 0 0 0 0 0.360784314 0 0 0 0 0.262745098 0 0 0 0.5 0" in="shadowBlurOuter1"/></filter><path id="b" d="M15.191 4.37H130v43.938H15.191L0 38.57V13.978z"/><path d="M130 4.37v43.938H15.191L0 38.57V13.978L15.191 4.37H130zM14 22a4 4 0 100 8 4 4 0 000-8z" id="d"/></defs><g fill="none" fill-rule="evenodd"><g transform="translate(9 3)"><use fill="#000" filter="url(#a)" xlink:href="#b"/><path class="tag-outline" stroke="#EC7175" stroke-width="5" d="M14.467 1.87H132.5v48.938H14.46L-2.5 39.938V12.6L14.467 1.87z"/></g><g transform="translate(9 3)"><use fill="#000" filter="url(#c)" xlink:href="#d"/><path stroke="#EBD216" d="M129.5 4.87H15.336L.5 14.253v24.043l14.838 9.51H129.5V4.87zM14 21.5a4.5 4.5 0 110 9 4.5 4.5 0 010-9z" stroke-linejoin="square" fill="#FFF"/></g></g></svg>